# xmcd
#
# Track frame offsets: 
#        150
#        21330
#        29881
#        48460
#        64871
#        81121
#        100950
#        136557
#        148449
#        182612
#        215283
#
# Disc length: 3039 seconds
#
# Revision: 0
# Processed by: cddbd v1.5.2PL0 Copyright (c) Steve Scherf et al.
# Submitted via: ExactAudioCopy v0.95b3
#
DISCID=a10bdd0b
DTITLE=Lukeria i deti - Lukeria i deti
DYEAR=2012
DGENRE=Folk
TTITLE0=Ti divchina
TTITLE1=Volki
TTITLE2=Arabskiy Goroshek
TTITLE3=Po vzgoriu
TTITLE4=Soberemsya vkrugovuyu
TTITLE5=Goroshek
TTITLE6=Kalinushka
TTITLE7=Stakan chau
TTITLE8=Tuman yarom
TTITLE9=Oi u lesi
TTITLE10=Chastushki
EXTD=
EXTT0=
EXTT1=
EXTT2=
EXTT3=
EXTT4=
EXTT5=
EXTT6=
EXTT7=
EXTT8=
EXTT9=
EXTT10=
PLAYORDER=
